<mxfile host="app.diagrams.net" modified="2021-12-29T07:38:29.786Z" agent="5.0 (Macintosh; Intel Mac OS X 10_15_7) AppleWebKit/537.36 (KHTML, like Gecko) Chrome/96.0.4664.110 Safari/537.36" etag="-M0C4OF748-gTOQvBmsw" version="15.8.6" type="github">
  <diagram id="kPdgK0YCUrMneEPVn0Fr" name="第 1 页">
    <mxGraphModel dx="946" dy="505" grid="1" gridSize="10" guides="1" tooltips="1" connect="1" arrows="1" fold="1" page="1" pageScale="1" pageWidth="827" pageHeight="1169" math="0" shadow="0">
      <root>
        <mxCell id="0" />
        <mxCell id="1" parent="0" />
        <mxCell id="ArdAXpotYQYGTAsiqMGZ-59" value="" style="shape=table;startSize=0;container=1;collapsible=0;childLayout=tableLayout;fillColor=#f5f5f5;gradientColor=#b3b3b3;strokeColor=#666666;" vertex="1" parent="1">
          <mxGeometry x="90" y="170" width="270" height="250" as="geometry" />
        </mxCell>
        <mxCell id="ArdAXpotYQYGTAsiqMGZ-60" value="" style="shape=partialRectangle;collapsible=0;dropTarget=0;pointerEvents=0;fillColor=none;top=0;left=0;bottom=0;right=0;points=[[0,0.5],[1,0.5]];portConstraint=eastwest;" vertex="1" parent="ArdAXpotYQYGTAsiqMGZ-59">
          <mxGeometry width="270" height="31" as="geometry" />
        </mxCell>
        <mxCell id="ArdAXpotYQYGTAsiqMGZ-61" value="p1" style="shape=partialRectangle;html=1;whiteSpace=wrap;connectable=0;overflow=hidden;fillColor=#ffff88;top=0;left=0;bottom=0;right=0;pointerEvents=1;strokeColor=#36393d;" vertex="1" parent="ArdAXpotYQYGTAsiqMGZ-60">
          <mxGeometry width="34" height="31" as="geometry">
            <mxRectangle width="34" height="31" as="alternateBounds" />
          </mxGeometry>
        </mxCell>
        <mxCell id="ArdAXpotYQYGTAsiqMGZ-62" value="p2" style="shape=partialRectangle;html=1;whiteSpace=wrap;connectable=0;overflow=hidden;fillColor=#cce5ff;top=0;left=0;bottom=0;right=0;pointerEvents=1;strokeColor=#36393d;" vertex="1" parent="ArdAXpotYQYGTAsiqMGZ-60">
          <mxGeometry x="34" width="34" height="31" as="geometry">
            <mxRectangle width="34" height="31" as="alternateBounds" />
          </mxGeometry>
        </mxCell>
        <mxCell id="ArdAXpotYQYGTAsiqMGZ-63" value="p3" style="shape=partialRectangle;html=1;whiteSpace=wrap;connectable=0;overflow=hidden;fillColor=#cdeb8b;top=0;left=0;bottom=0;right=0;pointerEvents=1;strokeColor=#36393d;" vertex="1" parent="ArdAXpotYQYGTAsiqMGZ-60">
          <mxGeometry x="68" width="33" height="31" as="geometry">
            <mxRectangle width="33" height="31" as="alternateBounds" />
          </mxGeometry>
        </mxCell>
        <mxCell id="ArdAXpotYQYGTAsiqMGZ-64" value="p4" style="shape=partialRectangle;html=1;whiteSpace=wrap;connectable=0;overflow=hidden;fillColor=#ffcccc;top=0;left=0;bottom=0;right=0;pointerEvents=1;strokeColor=#36393d;" vertex="1" parent="ArdAXpotYQYGTAsiqMGZ-60">
          <mxGeometry x="101" width="34" height="31" as="geometry">
            <mxRectangle width="34" height="31" as="alternateBounds" />
          </mxGeometry>
        </mxCell>
        <mxCell id="ArdAXpotYQYGTAsiqMGZ-65" value="" style="shape=partialRectangle;html=1;whiteSpace=wrap;connectable=0;overflow=hidden;fillColor=none;top=0;left=0;bottom=0;right=0;pointerEvents=1;" vertex="1" parent="ArdAXpotYQYGTAsiqMGZ-60">
          <mxGeometry x="135" width="34" height="31" as="geometry">
            <mxRectangle width="34" height="31" as="alternateBounds" />
          </mxGeometry>
        </mxCell>
        <mxCell id="ArdAXpotYQYGTAsiqMGZ-66" value="" style="shape=partialRectangle;html=1;whiteSpace=wrap;connectable=0;overflow=hidden;fillColor=none;top=0;left=0;bottom=0;right=0;pointerEvents=1;" vertex="1" parent="ArdAXpotYQYGTAsiqMGZ-60">
          <mxGeometry x="169" width="34" height="31" as="geometry">
            <mxRectangle width="34" height="31" as="alternateBounds" />
          </mxGeometry>
        </mxCell>
        <mxCell id="ArdAXpotYQYGTAsiqMGZ-67" value="" style="shape=partialRectangle;html=1;whiteSpace=wrap;connectable=0;overflow=hidden;fillColor=none;top=0;left=0;bottom=0;right=0;pointerEvents=1;" vertex="1" parent="ArdAXpotYQYGTAsiqMGZ-60">
          <mxGeometry x="203" width="33" height="31" as="geometry">
            <mxRectangle width="33" height="31" as="alternateBounds" />
          </mxGeometry>
        </mxCell>
        <mxCell id="ArdAXpotYQYGTAsiqMGZ-68" value="" style="shape=partialRectangle;html=1;whiteSpace=wrap;connectable=0;overflow=hidden;fillColor=none;top=0;left=0;bottom=0;right=0;pointerEvents=1;" vertex="1" parent="ArdAXpotYQYGTAsiqMGZ-60">
          <mxGeometry x="236" width="34" height="31" as="geometry">
            <mxRectangle width="34" height="31" as="alternateBounds" />
          </mxGeometry>
        </mxCell>
        <mxCell id="ArdAXpotYQYGTAsiqMGZ-69" value="" style="shape=partialRectangle;collapsible=0;dropTarget=0;pointerEvents=0;fillColor=none;top=0;left=0;bottom=0;right=0;points=[[0,0.5],[1,0.5]];portConstraint=eastwest;" vertex="1" parent="ArdAXpotYQYGTAsiqMGZ-59">
          <mxGeometry y="31" width="270" height="32" as="geometry" />
        </mxCell>
        <mxCell id="ArdAXpotYQYGTAsiqMGZ-70" value="" style="shape=partialRectangle;html=1;whiteSpace=wrap;connectable=0;overflow=hidden;fillColor=none;top=0;left=0;bottom=0;right=0;pointerEvents=1;" vertex="1" parent="ArdAXpotYQYGTAsiqMGZ-69">
          <mxGeometry width="34" height="32" as="geometry">
            <mxRectangle width="34" height="32" as="alternateBounds" />
          </mxGeometry>
        </mxCell>
        <mxCell id="ArdAXpotYQYGTAsiqMGZ-71" value="" style="shape=partialRectangle;html=1;whiteSpace=wrap;connectable=0;overflow=hidden;fillColor=none;top=0;left=0;bottom=0;right=0;pointerEvents=1;" vertex="1" parent="ArdAXpotYQYGTAsiqMGZ-69">
          <mxGeometry x="34" width="34" height="32" as="geometry">
            <mxRectangle width="34" height="32" as="alternateBounds" />
          </mxGeometry>
        </mxCell>
        <mxCell id="ArdAXpotYQYGTAsiqMGZ-72" value="" style="shape=partialRectangle;html=1;whiteSpace=wrap;connectable=0;overflow=hidden;fillColor=none;top=0;left=0;bottom=0;right=0;pointerEvents=1;" vertex="1" parent="ArdAXpotYQYGTAsiqMGZ-69">
          <mxGeometry x="68" width="33" height="32" as="geometry">
            <mxRectangle width="33" height="32" as="alternateBounds" />
          </mxGeometry>
        </mxCell>
        <mxCell id="ArdAXpotYQYGTAsiqMGZ-73" value="" style="shape=partialRectangle;html=1;whiteSpace=wrap;connectable=0;overflow=hidden;fillColor=none;top=0;left=0;bottom=0;right=0;pointerEvents=1;" vertex="1" parent="ArdAXpotYQYGTAsiqMGZ-69">
          <mxGeometry x="101" width="34" height="32" as="geometry">
            <mxRectangle width="34" height="32" as="alternateBounds" />
          </mxGeometry>
        </mxCell>
        <mxCell id="ArdAXpotYQYGTAsiqMGZ-74" value="" style="shape=partialRectangle;html=1;whiteSpace=wrap;connectable=0;overflow=hidden;fillColor=none;top=0;left=0;bottom=0;right=0;pointerEvents=1;" vertex="1" parent="ArdAXpotYQYGTAsiqMGZ-69">
          <mxGeometry x="135" width="34" height="32" as="geometry">
            <mxRectangle width="34" height="32" as="alternateBounds" />
          </mxGeometry>
        </mxCell>
        <mxCell id="ArdAXpotYQYGTAsiqMGZ-75" value="" style="shape=partialRectangle;html=1;whiteSpace=wrap;connectable=0;overflow=hidden;fillColor=none;top=0;left=0;bottom=0;right=0;pointerEvents=1;" vertex="1" parent="ArdAXpotYQYGTAsiqMGZ-69">
          <mxGeometry x="169" width="34" height="32" as="geometry">
            <mxRectangle width="34" height="32" as="alternateBounds" />
          </mxGeometry>
        </mxCell>
        <mxCell id="ArdAXpotYQYGTAsiqMGZ-76" value="" style="shape=partialRectangle;html=1;whiteSpace=wrap;connectable=0;overflow=hidden;fillColor=none;top=0;left=0;bottom=0;right=0;pointerEvents=1;" vertex="1" parent="ArdAXpotYQYGTAsiqMGZ-69">
          <mxGeometry x="203" width="33" height="32" as="geometry">
            <mxRectangle width="33" height="32" as="alternateBounds" />
          </mxGeometry>
        </mxCell>
        <mxCell id="ArdAXpotYQYGTAsiqMGZ-77" value="" style="shape=partialRectangle;html=1;whiteSpace=wrap;connectable=0;overflow=hidden;fillColor=none;top=0;left=0;bottom=0;right=0;pointerEvents=1;" vertex="1" parent="ArdAXpotYQYGTAsiqMGZ-69">
          <mxGeometry x="236" width="34" height="32" as="geometry">
            <mxRectangle width="34" height="32" as="alternateBounds" />
          </mxGeometry>
        </mxCell>
        <mxCell id="ArdAXpotYQYGTAsiqMGZ-78" value="" style="shape=partialRectangle;collapsible=0;dropTarget=0;pointerEvents=0;fillColor=none;top=0;left=0;bottom=0;right=0;points=[[0,0.5],[1,0.5]];portConstraint=eastwest;" vertex="1" parent="ArdAXpotYQYGTAsiqMGZ-59">
          <mxGeometry y="63" width="270" height="31" as="geometry" />
        </mxCell>
        <mxCell id="ArdAXpotYQYGTAsiqMGZ-79" value="" style="shape=partialRectangle;html=1;whiteSpace=wrap;connectable=0;overflow=hidden;fillColor=none;top=0;left=0;bottom=0;right=0;pointerEvents=1;" vertex="1" parent="ArdAXpotYQYGTAsiqMGZ-78">
          <mxGeometry width="34" height="31" as="geometry">
            <mxRectangle width="34" height="31" as="alternateBounds" />
          </mxGeometry>
        </mxCell>
        <mxCell id="ArdAXpotYQYGTAsiqMGZ-80" value="" style="shape=partialRectangle;html=1;whiteSpace=wrap;connectable=0;overflow=hidden;fillColor=none;top=0;left=0;bottom=0;right=0;pointerEvents=1;" vertex="1" parent="ArdAXpotYQYGTAsiqMGZ-78">
          <mxGeometry x="34" width="34" height="31" as="geometry">
            <mxRectangle width="34" height="31" as="alternateBounds" />
          </mxGeometry>
        </mxCell>
        <mxCell id="ArdAXpotYQYGTAsiqMGZ-81" value="" style="shape=partialRectangle;html=1;whiteSpace=wrap;connectable=0;overflow=hidden;fillColor=none;top=0;left=0;bottom=0;right=0;pointerEvents=1;" vertex="1" parent="ArdAXpotYQYGTAsiqMGZ-78">
          <mxGeometry x="68" width="33" height="31" as="geometry">
            <mxRectangle width="33" height="31" as="alternateBounds" />
          </mxGeometry>
        </mxCell>
        <mxCell id="ArdAXpotYQYGTAsiqMGZ-82" value="" style="shape=partialRectangle;html=1;whiteSpace=wrap;connectable=0;overflow=hidden;fillColor=none;top=0;left=0;bottom=0;right=0;pointerEvents=1;" vertex="1" parent="ArdAXpotYQYGTAsiqMGZ-78">
          <mxGeometry x="101" width="34" height="31" as="geometry">
            <mxRectangle width="34" height="31" as="alternateBounds" />
          </mxGeometry>
        </mxCell>
        <mxCell id="ArdAXpotYQYGTAsiqMGZ-83" value="" style="shape=partialRectangle;html=1;whiteSpace=wrap;connectable=0;overflow=hidden;fillColor=none;top=0;left=0;bottom=0;right=0;pointerEvents=1;" vertex="1" parent="ArdAXpotYQYGTAsiqMGZ-78">
          <mxGeometry x="135" width="34" height="31" as="geometry">
            <mxRectangle width="34" height="31" as="alternateBounds" />
          </mxGeometry>
        </mxCell>
        <mxCell id="ArdAXpotYQYGTAsiqMGZ-84" value="" style="shape=partialRectangle;html=1;whiteSpace=wrap;connectable=0;overflow=hidden;fillColor=none;top=0;left=0;bottom=0;right=0;pointerEvents=1;" vertex="1" parent="ArdAXpotYQYGTAsiqMGZ-78">
          <mxGeometry x="169" width="34" height="31" as="geometry">
            <mxRectangle width="34" height="31" as="alternateBounds" />
          </mxGeometry>
        </mxCell>
        <mxCell id="ArdAXpotYQYGTAsiqMGZ-85" value="" style="shape=partialRectangle;html=1;whiteSpace=wrap;connectable=0;overflow=hidden;fillColor=none;top=0;left=0;bottom=0;right=0;pointerEvents=1;" vertex="1" parent="ArdAXpotYQYGTAsiqMGZ-78">
          <mxGeometry x="203" width="33" height="31" as="geometry">
            <mxRectangle width="33" height="31" as="alternateBounds" />
          </mxGeometry>
        </mxCell>
        <mxCell id="ArdAXpotYQYGTAsiqMGZ-86" value="" style="shape=partialRectangle;html=1;whiteSpace=wrap;connectable=0;overflow=hidden;fillColor=none;top=0;left=0;bottom=0;right=0;pointerEvents=1;" vertex="1" parent="ArdAXpotYQYGTAsiqMGZ-78">
          <mxGeometry x="236" width="34" height="31" as="geometry">
            <mxRectangle width="34" height="31" as="alternateBounds" />
          </mxGeometry>
        </mxCell>
        <mxCell id="ArdAXpotYQYGTAsiqMGZ-87" value="" style="shape=partialRectangle;collapsible=0;dropTarget=0;pointerEvents=0;fillColor=none;top=0;left=0;bottom=0;right=0;points=[[0,0.5],[1,0.5]];portConstraint=eastwest;" vertex="1" parent="ArdAXpotYQYGTAsiqMGZ-59">
          <mxGeometry y="94" width="270" height="31" as="geometry" />
        </mxCell>
        <mxCell id="ArdAXpotYQYGTAsiqMGZ-88" value="" style="shape=partialRectangle;html=1;whiteSpace=wrap;connectable=0;overflow=hidden;fillColor=none;top=0;left=0;bottom=0;right=0;pointerEvents=1;" vertex="1" parent="ArdAXpotYQYGTAsiqMGZ-87">
          <mxGeometry width="34" height="31" as="geometry">
            <mxRectangle width="34" height="31" as="alternateBounds" />
          </mxGeometry>
        </mxCell>
        <mxCell id="ArdAXpotYQYGTAsiqMGZ-89" value="" style="shape=partialRectangle;html=1;whiteSpace=wrap;connectable=0;overflow=hidden;fillColor=none;top=0;left=0;bottom=0;right=0;pointerEvents=1;" vertex="1" parent="ArdAXpotYQYGTAsiqMGZ-87">
          <mxGeometry x="34" width="34" height="31" as="geometry">
            <mxRectangle width="34" height="31" as="alternateBounds" />
          </mxGeometry>
        </mxCell>
        <mxCell id="ArdAXpotYQYGTAsiqMGZ-90" value="" style="shape=partialRectangle;html=1;whiteSpace=wrap;connectable=0;overflow=hidden;fillColor=none;top=0;left=0;bottom=0;right=0;pointerEvents=1;" vertex="1" parent="ArdAXpotYQYGTAsiqMGZ-87">
          <mxGeometry x="68" width="33" height="31" as="geometry">
            <mxRectangle width="33" height="31" as="alternateBounds" />
          </mxGeometry>
        </mxCell>
        <mxCell id="ArdAXpotYQYGTAsiqMGZ-91" value="" style="shape=partialRectangle;html=1;whiteSpace=wrap;connectable=0;overflow=hidden;fillColor=none;top=0;left=0;bottom=0;right=0;pointerEvents=1;" vertex="1" parent="ArdAXpotYQYGTAsiqMGZ-87">
          <mxGeometry x="101" width="34" height="31" as="geometry">
            <mxRectangle width="34" height="31" as="alternateBounds" />
          </mxGeometry>
        </mxCell>
        <mxCell id="ArdAXpotYQYGTAsiqMGZ-92" value="" style="shape=partialRectangle;html=1;whiteSpace=wrap;connectable=0;overflow=hidden;fillColor=none;top=0;left=0;bottom=0;right=0;pointerEvents=1;" vertex="1" parent="ArdAXpotYQYGTAsiqMGZ-87">
          <mxGeometry x="135" width="34" height="31" as="geometry">
            <mxRectangle width="34" height="31" as="alternateBounds" />
          </mxGeometry>
        </mxCell>
        <mxCell id="ArdAXpotYQYGTAsiqMGZ-93" value="" style="shape=partialRectangle;html=1;whiteSpace=wrap;connectable=0;overflow=hidden;fillColor=none;top=0;left=0;bottom=0;right=0;pointerEvents=1;" vertex="1" parent="ArdAXpotYQYGTAsiqMGZ-87">
          <mxGeometry x="169" width="34" height="31" as="geometry">
            <mxRectangle width="34" height="31" as="alternateBounds" />
          </mxGeometry>
        </mxCell>
        <mxCell id="ArdAXpotYQYGTAsiqMGZ-94" value="" style="shape=partialRectangle;html=1;whiteSpace=wrap;connectable=0;overflow=hidden;fillColor=none;top=0;left=0;bottom=0;right=0;pointerEvents=1;" vertex="1" parent="ArdAXpotYQYGTAsiqMGZ-87">
          <mxGeometry x="203" width="33" height="31" as="geometry">
            <mxRectangle width="33" height="31" as="alternateBounds" />
          </mxGeometry>
        </mxCell>
        <mxCell id="ArdAXpotYQYGTAsiqMGZ-95" value="" style="shape=partialRectangle;html=1;whiteSpace=wrap;connectable=0;overflow=hidden;fillColor=none;top=0;left=0;bottom=0;right=0;pointerEvents=1;" vertex="1" parent="ArdAXpotYQYGTAsiqMGZ-87">
          <mxGeometry x="236" width="34" height="31" as="geometry">
            <mxRectangle width="34" height="31" as="alternateBounds" />
          </mxGeometry>
        </mxCell>
        <mxCell id="ArdAXpotYQYGTAsiqMGZ-96" value="" style="shape=partialRectangle;collapsible=0;dropTarget=0;pointerEvents=0;fillColor=none;top=0;left=0;bottom=0;right=0;points=[[0,0.5],[1,0.5]];portConstraint=eastwest;" vertex="1" parent="ArdAXpotYQYGTAsiqMGZ-59">
          <mxGeometry y="125" width="270" height="31" as="geometry" />
        </mxCell>
        <mxCell id="ArdAXpotYQYGTAsiqMGZ-97" value="" style="shape=partialRectangle;html=1;whiteSpace=wrap;connectable=0;overflow=hidden;fillColor=none;top=0;left=0;bottom=0;right=0;pointerEvents=1;" vertex="1" parent="ArdAXpotYQYGTAsiqMGZ-96">
          <mxGeometry width="34" height="31" as="geometry">
            <mxRectangle width="34" height="31" as="alternateBounds" />
          </mxGeometry>
        </mxCell>
        <mxCell id="ArdAXpotYQYGTAsiqMGZ-98" value="" style="shape=partialRectangle;html=1;whiteSpace=wrap;connectable=0;overflow=hidden;fillColor=none;top=0;left=0;bottom=0;right=0;pointerEvents=1;" vertex="1" parent="ArdAXpotYQYGTAsiqMGZ-96">
          <mxGeometry x="34" width="34" height="31" as="geometry">
            <mxRectangle width="34" height="31" as="alternateBounds" />
          </mxGeometry>
        </mxCell>
        <mxCell id="ArdAXpotYQYGTAsiqMGZ-99" value="" style="shape=partialRectangle;html=1;whiteSpace=wrap;connectable=0;overflow=hidden;fillColor=none;top=0;left=0;bottom=0;right=0;pointerEvents=1;" vertex="1" parent="ArdAXpotYQYGTAsiqMGZ-96">
          <mxGeometry x="68" width="33" height="31" as="geometry">
            <mxRectangle width="33" height="31" as="alternateBounds" />
          </mxGeometry>
        </mxCell>
        <mxCell id="ArdAXpotYQYGTAsiqMGZ-100" value="" style="shape=partialRectangle;html=1;whiteSpace=wrap;connectable=0;overflow=hidden;fillColor=none;top=0;left=0;bottom=0;right=0;pointerEvents=1;" vertex="1" parent="ArdAXpotYQYGTAsiqMGZ-96">
          <mxGeometry x="101" width="34" height="31" as="geometry">
            <mxRectangle width="34" height="31" as="alternateBounds" />
          </mxGeometry>
        </mxCell>
        <mxCell id="ArdAXpotYQYGTAsiqMGZ-101" value="" style="shape=partialRectangle;html=1;whiteSpace=wrap;connectable=0;overflow=hidden;fillColor=none;top=0;left=0;bottom=0;right=0;pointerEvents=1;" vertex="1" parent="ArdAXpotYQYGTAsiqMGZ-96">
          <mxGeometry x="135" width="34" height="31" as="geometry">
            <mxRectangle width="34" height="31" as="alternateBounds" />
          </mxGeometry>
        </mxCell>
        <mxCell id="ArdAXpotYQYGTAsiqMGZ-102" value="" style="shape=partialRectangle;html=1;whiteSpace=wrap;connectable=0;overflow=hidden;fillColor=none;top=0;left=0;bottom=0;right=0;pointerEvents=1;" vertex="1" parent="ArdAXpotYQYGTAsiqMGZ-96">
          <mxGeometry x="169" width="34" height="31" as="geometry">
            <mxRectangle width="34" height="31" as="alternateBounds" />
          </mxGeometry>
        </mxCell>
        <mxCell id="ArdAXpotYQYGTAsiqMGZ-103" value="" style="shape=partialRectangle;html=1;whiteSpace=wrap;connectable=0;overflow=hidden;fillColor=none;top=0;left=0;bottom=0;right=0;pointerEvents=1;" vertex="1" parent="ArdAXpotYQYGTAsiqMGZ-96">
          <mxGeometry x="203" width="33" height="31" as="geometry">
            <mxRectangle width="33" height="31" as="alternateBounds" />
          </mxGeometry>
        </mxCell>
        <mxCell id="ArdAXpotYQYGTAsiqMGZ-104" value="" style="shape=partialRectangle;html=1;whiteSpace=wrap;connectable=0;overflow=hidden;fillColor=none;top=0;left=0;bottom=0;right=0;pointerEvents=1;" vertex="1" parent="ArdAXpotYQYGTAsiqMGZ-96">
          <mxGeometry x="236" width="34" height="31" as="geometry">
            <mxRectangle width="34" height="31" as="alternateBounds" />
          </mxGeometry>
        </mxCell>
        <mxCell id="ArdAXpotYQYGTAsiqMGZ-105" value="" style="shape=partialRectangle;collapsible=0;dropTarget=0;pointerEvents=0;fillColor=none;top=0;left=0;bottom=0;right=0;points=[[0,0.5],[1,0.5]];portConstraint=eastwest;" vertex="1" parent="ArdAXpotYQYGTAsiqMGZ-59">
          <mxGeometry y="156" width="270" height="32" as="geometry" />
        </mxCell>
        <mxCell id="ArdAXpotYQYGTAsiqMGZ-106" value="" style="shape=partialRectangle;html=1;whiteSpace=wrap;connectable=0;overflow=hidden;fillColor=none;top=0;left=0;bottom=0;right=0;pointerEvents=1;" vertex="1" parent="ArdAXpotYQYGTAsiqMGZ-105">
          <mxGeometry width="34" height="32" as="geometry">
            <mxRectangle width="34" height="32" as="alternateBounds" />
          </mxGeometry>
        </mxCell>
        <mxCell id="ArdAXpotYQYGTAsiqMGZ-107" value="" style="shape=partialRectangle;html=1;whiteSpace=wrap;connectable=0;overflow=hidden;fillColor=none;top=0;left=0;bottom=0;right=0;pointerEvents=1;" vertex="1" parent="ArdAXpotYQYGTAsiqMGZ-105">
          <mxGeometry x="34" width="34" height="32" as="geometry">
            <mxRectangle width="34" height="32" as="alternateBounds" />
          </mxGeometry>
        </mxCell>
        <mxCell id="ArdAXpotYQYGTAsiqMGZ-108" value="" style="shape=partialRectangle;html=1;whiteSpace=wrap;connectable=0;overflow=hidden;fillColor=none;top=0;left=0;bottom=0;right=0;pointerEvents=1;" vertex="1" parent="ArdAXpotYQYGTAsiqMGZ-105">
          <mxGeometry x="68" width="33" height="32" as="geometry">
            <mxRectangle width="33" height="32" as="alternateBounds" />
          </mxGeometry>
        </mxCell>
        <mxCell id="ArdAXpotYQYGTAsiqMGZ-109" value="" style="shape=partialRectangle;html=1;whiteSpace=wrap;connectable=0;overflow=hidden;fillColor=none;top=0;left=0;bottom=0;right=0;pointerEvents=1;" vertex="1" parent="ArdAXpotYQYGTAsiqMGZ-105">
          <mxGeometry x="101" width="34" height="32" as="geometry">
            <mxRectangle width="34" height="32" as="alternateBounds" />
          </mxGeometry>
        </mxCell>
        <mxCell id="ArdAXpotYQYGTAsiqMGZ-110" value="" style="shape=partialRectangle;html=1;whiteSpace=wrap;connectable=0;overflow=hidden;fillColor=none;top=0;left=0;bottom=0;right=0;pointerEvents=1;" vertex="1" parent="ArdAXpotYQYGTAsiqMGZ-105">
          <mxGeometry x="135" width="34" height="32" as="geometry">
            <mxRectangle width="34" height="32" as="alternateBounds" />
          </mxGeometry>
        </mxCell>
        <mxCell id="ArdAXpotYQYGTAsiqMGZ-111" value="" style="shape=partialRectangle;html=1;whiteSpace=wrap;connectable=0;overflow=hidden;fillColor=none;top=0;left=0;bottom=0;right=0;pointerEvents=1;" vertex="1" parent="ArdAXpotYQYGTAsiqMGZ-105">
          <mxGeometry x="169" width="34" height="32" as="geometry">
            <mxRectangle width="34" height="32" as="alternateBounds" />
          </mxGeometry>
        </mxCell>
        <mxCell id="ArdAXpotYQYGTAsiqMGZ-112" value="" style="shape=partialRectangle;html=1;whiteSpace=wrap;connectable=0;overflow=hidden;fillColor=none;top=0;left=0;bottom=0;right=0;pointerEvents=1;" vertex="1" parent="ArdAXpotYQYGTAsiqMGZ-105">
          <mxGeometry x="203" width="33" height="32" as="geometry">
            <mxRectangle width="33" height="32" as="alternateBounds" />
          </mxGeometry>
        </mxCell>
        <mxCell id="ArdAXpotYQYGTAsiqMGZ-113" value="" style="shape=partialRectangle;html=1;whiteSpace=wrap;connectable=0;overflow=hidden;fillColor=none;top=0;left=0;bottom=0;right=0;pointerEvents=1;" vertex="1" parent="ArdAXpotYQYGTAsiqMGZ-105">
          <mxGeometry x="236" width="34" height="32" as="geometry">
            <mxRectangle width="34" height="32" as="alternateBounds" />
          </mxGeometry>
        </mxCell>
        <mxCell id="ArdAXpotYQYGTAsiqMGZ-114" value="" style="shape=partialRectangle;collapsible=0;dropTarget=0;pointerEvents=0;fillColor=none;top=0;left=0;bottom=0;right=0;points=[[0,0.5],[1,0.5]];portConstraint=eastwest;" vertex="1" parent="ArdAXpotYQYGTAsiqMGZ-59">
          <mxGeometry y="188" width="270" height="31" as="geometry" />
        </mxCell>
        <mxCell id="ArdAXpotYQYGTAsiqMGZ-115" value="" style="shape=partialRectangle;html=1;whiteSpace=wrap;connectable=0;overflow=hidden;fillColor=none;top=0;left=0;bottom=0;right=0;pointerEvents=1;" vertex="1" parent="ArdAXpotYQYGTAsiqMGZ-114">
          <mxGeometry width="34" height="31" as="geometry">
            <mxRectangle width="34" height="31" as="alternateBounds" />
          </mxGeometry>
        </mxCell>
        <mxCell id="ArdAXpotYQYGTAsiqMGZ-116" value="" style="shape=partialRectangle;html=1;whiteSpace=wrap;connectable=0;overflow=hidden;fillColor=none;top=0;left=0;bottom=0;right=0;pointerEvents=1;" vertex="1" parent="ArdAXpotYQYGTAsiqMGZ-114">
          <mxGeometry x="34" width="34" height="31" as="geometry">
            <mxRectangle width="34" height="31" as="alternateBounds" />
          </mxGeometry>
        </mxCell>
        <mxCell id="ArdAXpotYQYGTAsiqMGZ-117" value="" style="shape=partialRectangle;html=1;whiteSpace=wrap;connectable=0;overflow=hidden;fillColor=none;top=0;left=0;bottom=0;right=0;pointerEvents=1;" vertex="1" parent="ArdAXpotYQYGTAsiqMGZ-114">
          <mxGeometry x="68" width="33" height="31" as="geometry">
            <mxRectangle width="33" height="31" as="alternateBounds" />
          </mxGeometry>
        </mxCell>
        <mxCell id="ArdAXpotYQYGTAsiqMGZ-118" value="" style="shape=partialRectangle;html=1;whiteSpace=wrap;connectable=0;overflow=hidden;fillColor=none;top=0;left=0;bottom=0;right=0;pointerEvents=1;" vertex="1" parent="ArdAXpotYQYGTAsiqMGZ-114">
          <mxGeometry x="101" width="34" height="31" as="geometry">
            <mxRectangle width="34" height="31" as="alternateBounds" />
          </mxGeometry>
        </mxCell>
        <mxCell id="ArdAXpotYQYGTAsiqMGZ-119" value="" style="shape=partialRectangle;html=1;whiteSpace=wrap;connectable=0;overflow=hidden;fillColor=none;top=0;left=0;bottom=0;right=0;pointerEvents=1;" vertex="1" parent="ArdAXpotYQYGTAsiqMGZ-114">
          <mxGeometry x="135" width="34" height="31" as="geometry">
            <mxRectangle width="34" height="31" as="alternateBounds" />
          </mxGeometry>
        </mxCell>
        <mxCell id="ArdAXpotYQYGTAsiqMGZ-120" value="" style="shape=partialRectangle;html=1;whiteSpace=wrap;connectable=0;overflow=hidden;fillColor=none;top=0;left=0;bottom=0;right=0;pointerEvents=1;" vertex="1" parent="ArdAXpotYQYGTAsiqMGZ-114">
          <mxGeometry x="169" width="34" height="31" as="geometry">
            <mxRectangle width="34" height="31" as="alternateBounds" />
          </mxGeometry>
        </mxCell>
        <mxCell id="ArdAXpotYQYGTAsiqMGZ-121" value="" style="shape=partialRectangle;html=1;whiteSpace=wrap;connectable=0;overflow=hidden;fillColor=none;top=0;left=0;bottom=0;right=0;pointerEvents=1;" vertex="1" parent="ArdAXpotYQYGTAsiqMGZ-114">
          <mxGeometry x="203" width="33" height="31" as="geometry">
            <mxRectangle width="33" height="31" as="alternateBounds" />
          </mxGeometry>
        </mxCell>
        <mxCell id="ArdAXpotYQYGTAsiqMGZ-122" value="" style="shape=partialRectangle;html=1;whiteSpace=wrap;connectable=0;overflow=hidden;fillColor=none;top=0;left=0;bottom=0;right=0;pointerEvents=1;" vertex="1" parent="ArdAXpotYQYGTAsiqMGZ-114">
          <mxGeometry x="236" width="34" height="31" as="geometry">
            <mxRectangle width="34" height="31" as="alternateBounds" />
          </mxGeometry>
        </mxCell>
        <mxCell id="ArdAXpotYQYGTAsiqMGZ-123" value="" style="shape=partialRectangle;collapsible=0;dropTarget=0;pointerEvents=0;fillColor=none;top=0;left=0;bottom=0;right=0;points=[[0,0.5],[1,0.5]];portConstraint=eastwest;" vertex="1" parent="ArdAXpotYQYGTAsiqMGZ-59">
          <mxGeometry y="219" width="270" height="31" as="geometry" />
        </mxCell>
        <mxCell id="ArdAXpotYQYGTAsiqMGZ-124" value="" style="shape=partialRectangle;html=1;whiteSpace=wrap;connectable=0;overflow=hidden;fillColor=none;top=0;left=0;bottom=0;right=0;pointerEvents=1;" vertex="1" parent="ArdAXpotYQYGTAsiqMGZ-123">
          <mxGeometry width="34" height="31" as="geometry">
            <mxRectangle width="34" height="31" as="alternateBounds" />
          </mxGeometry>
        </mxCell>
        <mxCell id="ArdAXpotYQYGTAsiqMGZ-125" value="" style="shape=partialRectangle;html=1;whiteSpace=wrap;connectable=0;overflow=hidden;fillColor=none;top=0;left=0;bottom=0;right=0;pointerEvents=1;" vertex="1" parent="ArdAXpotYQYGTAsiqMGZ-123">
          <mxGeometry x="34" width="34" height="31" as="geometry">
            <mxRectangle width="34" height="31" as="alternateBounds" />
          </mxGeometry>
        </mxCell>
        <mxCell id="ArdAXpotYQYGTAsiqMGZ-126" value="" style="shape=partialRectangle;html=1;whiteSpace=wrap;connectable=0;overflow=hidden;fillColor=none;top=0;left=0;bottom=0;right=0;pointerEvents=1;" vertex="1" parent="ArdAXpotYQYGTAsiqMGZ-123">
          <mxGeometry x="68" width="33" height="31" as="geometry">
            <mxRectangle width="33" height="31" as="alternateBounds" />
          </mxGeometry>
        </mxCell>
        <mxCell id="ArdAXpotYQYGTAsiqMGZ-127" value="" style="shape=partialRectangle;html=1;whiteSpace=wrap;connectable=0;overflow=hidden;fillColor=none;top=0;left=0;bottom=0;right=0;pointerEvents=1;" vertex="1" parent="ArdAXpotYQYGTAsiqMGZ-123">
          <mxGeometry x="101" width="34" height="31" as="geometry">
            <mxRectangle width="34" height="31" as="alternateBounds" />
          </mxGeometry>
        </mxCell>
        <mxCell id="ArdAXpotYQYGTAsiqMGZ-128" value="" style="shape=partialRectangle;html=1;whiteSpace=wrap;connectable=0;overflow=hidden;fillColor=none;top=0;left=0;bottom=0;right=0;pointerEvents=1;" vertex="1" parent="ArdAXpotYQYGTAsiqMGZ-123">
          <mxGeometry x="135" width="34" height="31" as="geometry">
            <mxRectangle width="34" height="31" as="alternateBounds" />
          </mxGeometry>
        </mxCell>
        <mxCell id="ArdAXpotYQYGTAsiqMGZ-129" value="" style="shape=partialRectangle;html=1;whiteSpace=wrap;connectable=0;overflow=hidden;fillColor=none;top=0;left=0;bottom=0;right=0;pointerEvents=1;" vertex="1" parent="ArdAXpotYQYGTAsiqMGZ-123">
          <mxGeometry x="169" width="34" height="31" as="geometry">
            <mxRectangle width="34" height="31" as="alternateBounds" />
          </mxGeometry>
        </mxCell>
        <mxCell id="ArdAXpotYQYGTAsiqMGZ-130" value="" style="shape=partialRectangle;html=1;whiteSpace=wrap;connectable=0;overflow=hidden;fillColor=none;top=0;left=0;bottom=0;right=0;pointerEvents=1;" vertex="1" parent="ArdAXpotYQYGTAsiqMGZ-123">
          <mxGeometry x="203" width="33" height="31" as="geometry">
            <mxRectangle width="33" height="31" as="alternateBounds" />
          </mxGeometry>
        </mxCell>
        <mxCell id="ArdAXpotYQYGTAsiqMGZ-131" value="" style="shape=partialRectangle;html=1;whiteSpace=wrap;connectable=0;overflow=hidden;fillColor=none;top=0;left=0;bottom=0;right=0;pointerEvents=1;" vertex="1" parent="ArdAXpotYQYGTAsiqMGZ-123">
          <mxGeometry x="236" width="34" height="31" as="geometry">
            <mxRectangle width="34" height="31" as="alternateBounds" />
          </mxGeometry>
        </mxCell>
        <mxCell id="ArdAXpotYQYGTAsiqMGZ-255" value="" style="group;fillColor=#ffff88;strokeColor=#36393d;" vertex="1" connectable="0" parent="1">
          <mxGeometry x="500" y="220" width="160" height="20" as="geometry" />
        </mxCell>
        <mxCell id="ArdAXpotYQYGTAsiqMGZ-233" value="" style="whiteSpace=wrap;html=1;aspect=fixed;labelBackgroundColor=none;fillColor=#ffff88;container=0;strokeColor=#36393d;" vertex="1" parent="ArdAXpotYQYGTAsiqMGZ-255">
          <mxGeometry x="140" width="20" height="20" as="geometry" />
        </mxCell>
        <mxCell id="ArdAXpotYQYGTAsiqMGZ-234" value="" style="whiteSpace=wrap;html=1;aspect=fixed;labelBackgroundColor=none;fillColor=#ffff88;container=0;strokeColor=#36393d;" vertex="1" parent="ArdAXpotYQYGTAsiqMGZ-255">
          <mxGeometry x="120" width="20" height="20" as="geometry" />
        </mxCell>
        <mxCell id="ArdAXpotYQYGTAsiqMGZ-222" value="" style="whiteSpace=wrap;html=1;aspect=fixed;labelBackgroundColor=none;fillColor=#ffff88;container=0;strokeColor=#36393d;" vertex="1" parent="ArdAXpotYQYGTAsiqMGZ-255">
          <mxGeometry x="100" width="20" height="20" as="geometry" />
        </mxCell>
        <mxCell id="ArdAXpotYQYGTAsiqMGZ-223" value="" style="whiteSpace=wrap;html=1;aspect=fixed;labelBackgroundColor=none;fillColor=#ffff88;container=0;strokeColor=#36393d;" vertex="1" parent="ArdAXpotYQYGTAsiqMGZ-255">
          <mxGeometry x="80" width="20" height="20" as="geometry" />
        </mxCell>
        <mxCell id="ArdAXpotYQYGTAsiqMGZ-224" value="" style="whiteSpace=wrap;html=1;aspect=fixed;labelBackgroundColor=none;fillColor=#ffff88;container=0;strokeColor=#36393d;" vertex="1" parent="ArdAXpotYQYGTAsiqMGZ-255">
          <mxGeometry x="60" width="20" height="20" as="geometry" />
        </mxCell>
        <mxCell id="ArdAXpotYQYGTAsiqMGZ-225" value="" style="whiteSpace=wrap;html=1;aspect=fixed;labelBackgroundColor=none;fillColor=#ffff88;container=0;strokeColor=#36393d;" vertex="1" parent="ArdAXpotYQYGTAsiqMGZ-255">
          <mxGeometry x="40" width="20" height="20" as="geometry" />
        </mxCell>
        <mxCell id="ArdAXpotYQYGTAsiqMGZ-218" value="" style="whiteSpace=wrap;html=1;aspect=fixed;labelBackgroundColor=none;fillColor=#ffff88;container=0;strokeColor=#36393d;" vertex="1" parent="ArdAXpotYQYGTAsiqMGZ-255">
          <mxGeometry width="20" height="20" as="geometry" />
        </mxCell>
        <mxCell id="ArdAXpotYQYGTAsiqMGZ-219" value="" style="whiteSpace=wrap;html=1;aspect=fixed;labelBackgroundColor=none;fillColor=#ffff88;container=0;strokeColor=#36393d;" vertex="1" parent="ArdAXpotYQYGTAsiqMGZ-255">
          <mxGeometry x="20" width="20" height="20" as="geometry" />
        </mxCell>
        <mxCell id="ArdAXpotYQYGTAsiqMGZ-268" value="" style="group;fillColor=#cce5ff;strokeColor=#36393d;" vertex="1" connectable="0" parent="1">
          <mxGeometry x="500" y="340" width="160" height="20" as="geometry" />
        </mxCell>
        <mxCell id="ArdAXpotYQYGTAsiqMGZ-262" value="" style="whiteSpace=wrap;html=1;aspect=fixed;labelBackgroundColor=none;fillColor=#cce5ff;container=0;strokeColor=#36393d;" vertex="1" parent="ArdAXpotYQYGTAsiqMGZ-268">
          <mxGeometry x="60" width="20" height="20" as="geometry" />
        </mxCell>
        <mxCell id="ArdAXpotYQYGTAsiqMGZ-258" value="" style="whiteSpace=wrap;html=1;aspect=fixed;labelBackgroundColor=none;fillColor=#ffcccc;container=0;strokeColor=#36393d;" vertex="1" parent="ArdAXpotYQYGTAsiqMGZ-268">
          <mxGeometry x="140" width="20" height="20" as="geometry" />
        </mxCell>
        <mxCell id="ArdAXpotYQYGTAsiqMGZ-259" value="" style="whiteSpace=wrap;html=1;aspect=fixed;labelBackgroundColor=none;fillColor=#ffcccc;container=0;strokeColor=#36393d;" vertex="1" parent="ArdAXpotYQYGTAsiqMGZ-268">
          <mxGeometry x="120" width="20" height="20" as="geometry" />
        </mxCell>
        <mxCell id="ArdAXpotYQYGTAsiqMGZ-260" value="" style="whiteSpace=wrap;html=1;aspect=fixed;labelBackgroundColor=none;fillColor=#cdeb8b;container=0;strokeColor=#36393d;" vertex="1" parent="ArdAXpotYQYGTAsiqMGZ-268">
          <mxGeometry x="100" width="20" height="20" as="geometry" />
        </mxCell>
        <mxCell id="ArdAXpotYQYGTAsiqMGZ-261" value="" style="whiteSpace=wrap;html=1;aspect=fixed;labelBackgroundColor=none;fillColor=#cdeb8b;container=0;strokeColor=#36393d;" vertex="1" parent="ArdAXpotYQYGTAsiqMGZ-268">
          <mxGeometry x="80" width="20" height="20" as="geometry" />
        </mxCell>
        <mxCell id="ArdAXpotYQYGTAsiqMGZ-263" value="" style="whiteSpace=wrap;html=1;aspect=fixed;labelBackgroundColor=none;fillColor=#cce5ff;container=0;strokeColor=#36393d;" vertex="1" parent="ArdAXpotYQYGTAsiqMGZ-268">
          <mxGeometry x="40" width="20" height="20" as="geometry" />
        </mxCell>
        <mxCell id="ArdAXpotYQYGTAsiqMGZ-264" value="" style="whiteSpace=wrap;html=1;aspect=fixed;labelBackgroundColor=none;fillColor=#ffff88;container=0;strokeColor=#36393d;" vertex="1" parent="ArdAXpotYQYGTAsiqMGZ-268">
          <mxGeometry width="20" height="20" as="geometry" />
        </mxCell>
        <mxCell id="ArdAXpotYQYGTAsiqMGZ-265" value="" style="whiteSpace=wrap;html=1;aspect=fixed;labelBackgroundColor=none;fillColor=#ffff88;container=0;strokeColor=#36393d;" vertex="1" parent="ArdAXpotYQYGTAsiqMGZ-268">
          <mxGeometry x="20" width="20" height="20" as="geometry" />
        </mxCell>
        <mxCell id="ArdAXpotYQYGTAsiqMGZ-269" value="p1" style="text;html=1;align=center;verticalAlign=middle;resizable=0;points=[];autosize=1;strokeColor=none;fillColor=none;" vertex="1" parent="1">
          <mxGeometry x="555" y="190" width="30" height="20" as="geometry" />
        </mxCell>
        <mxCell id="ArdAXpotYQYGTAsiqMGZ-270" value="p1" style="text;html=1;align=center;verticalAlign=middle;resizable=0;points=[];autosize=1;strokeColor=none;fillColor=none;" vertex="1" parent="1">
          <mxGeometry x="495" y="310" width="30" height="20" as="geometry" />
        </mxCell>
        <mxCell id="ArdAXpotYQYGTAsiqMGZ-271" value="p2" style="text;html=1;align=center;verticalAlign=middle;resizable=0;points=[];autosize=1;strokeColor=none;fillColor=none;" vertex="1" parent="1">
          <mxGeometry x="540" y="310" width="30" height="20" as="geometry" />
        </mxCell>
        <mxCell id="ArdAXpotYQYGTAsiqMGZ-272" value="p3" style="text;html=1;align=center;verticalAlign=middle;resizable=0;points=[];autosize=1;strokeColor=none;fillColor=none;" vertex="1" parent="1">
          <mxGeometry x="585" y="310" width="30" height="20" as="geometry" />
        </mxCell>
        <mxCell id="ArdAXpotYQYGTAsiqMGZ-273" value="p4" style="text;html=1;align=center;verticalAlign=middle;resizable=0;points=[];autosize=1;strokeColor=none;fillColor=none;" vertex="1" parent="1">
          <mxGeometry x="625" y="310" width="30" height="20" as="geometry" />
        </mxCell>
        <mxCell id="ArdAXpotYQYGTAsiqMGZ-274" value="图1" style="text;html=1;align=center;verticalAlign=middle;resizable=0;points=[];autosize=1;strokeColor=none;fillColor=none;" vertex="1" parent="1">
          <mxGeometry x="195" y="430" width="30" height="20" as="geometry" />
        </mxCell>
        <mxCell id="ArdAXpotYQYGTAsiqMGZ-275" value="图2" style="text;html=1;align=center;verticalAlign=middle;resizable=0;points=[];autosize=1;strokeColor=none;fillColor=none;" vertex="1" parent="1">
          <mxGeometry x="555" y="250" width="30" height="20" as="geometry" />
        </mxCell>
        <mxCell id="ArdAXpotYQYGTAsiqMGZ-276" value="图3" style="text;html=1;align=center;verticalAlign=middle;resizable=0;points=[];autosize=1;strokeColor=none;fillColor=none;" vertex="1" parent="1">
          <mxGeometry x="555" y="370" width="30" height="20" as="geometry" />
        </mxCell>
        <mxCell id="ArdAXpotYQYGTAsiqMGZ-277" value="8 bit" style="text;html=1;align=center;verticalAlign=middle;resizable=0;points=[];autosize=1;strokeColor=none;fillColor=none;" vertex="1" parent="1">
          <mxGeometry x="670" y="220" width="40" height="20" as="geometry" />
        </mxCell>
        <mxCell id="ArdAXpotYQYGTAsiqMGZ-278" value="8 bit" style="text;html=1;align=center;verticalAlign=middle;resizable=0;points=[];autosize=1;strokeColor=none;fillColor=none;" vertex="1" parent="1">
          <mxGeometry x="670" y="340" width="40" height="20" as="geometry" />
        </mxCell>
        <mxCell id="ArdAXpotYQYGTAsiqMGZ-426" value="" style="shape=table;startSize=0;container=1;collapsible=0;childLayout=tableLayout;labelBackgroundColor=none;fillColor=default;" vertex="1" parent="1">
          <mxGeometry x="90" y="490" width="140" height="230" as="geometry" />
        </mxCell>
        <mxCell id="ArdAXpotYQYGTAsiqMGZ-427" value="" style="shape=partialRectangle;collapsible=0;dropTarget=0;pointerEvents=0;fillColor=none;top=0;left=0;bottom=0;right=0;points=[[0,0.5],[1,0.5]];portConstraint=eastwest;labelBackgroundColor=none;" vertex="1" parent="ArdAXpotYQYGTAsiqMGZ-426">
          <mxGeometry width="140" height="30" as="geometry" />
        </mxCell>
        <mxCell id="ArdAXpotYQYGTAsiqMGZ-428" value="" style="shape=partialRectangle;html=1;whiteSpace=wrap;connectable=0;overflow=hidden;fillColor=none;top=0;left=0;bottom=0;right=0;pointerEvents=1;labelBackgroundColor=none;" vertex="1" parent="ArdAXpotYQYGTAsiqMGZ-427">
          <mxGeometry width="35" height="30" as="geometry">
            <mxRectangle width="35" height="30" as="alternateBounds" />
          </mxGeometry>
        </mxCell>
        <mxCell id="ArdAXpotYQYGTAsiqMGZ-429" value="" style="shape=partialRectangle;html=1;whiteSpace=wrap;connectable=0;overflow=hidden;fillColor=none;top=0;left=0;bottom=0;right=0;pointerEvents=1;labelBackgroundColor=none;" vertex="1" parent="ArdAXpotYQYGTAsiqMGZ-427">
          <mxGeometry x="35" width="35" height="30" as="geometry">
            <mxRectangle width="35" height="30" as="alternateBounds" />
          </mxGeometry>
        </mxCell>
        <mxCell id="ArdAXpotYQYGTAsiqMGZ-430" value="" style="shape=partialRectangle;html=1;whiteSpace=wrap;connectable=0;overflow=hidden;fillColor=none;top=0;left=0;bottom=0;right=0;pointerEvents=1;labelBackgroundColor=none;" vertex="1" parent="ArdAXpotYQYGTAsiqMGZ-427">
          <mxGeometry x="70" width="35" height="30" as="geometry">
            <mxRectangle width="35" height="30" as="alternateBounds" />
          </mxGeometry>
        </mxCell>
        <mxCell id="ArdAXpotYQYGTAsiqMGZ-431" value="" style="shape=partialRectangle;html=1;whiteSpace=wrap;connectable=0;overflow=hidden;fillColor=none;top=0;left=0;bottom=0;right=0;pointerEvents=1;labelBackgroundColor=none;" vertex="1" parent="ArdAXpotYQYGTAsiqMGZ-427">
          <mxGeometry x="105" width="35" height="30" as="geometry">
            <mxRectangle width="35" height="30" as="alternateBounds" />
          </mxGeometry>
        </mxCell>
        <mxCell id="ArdAXpotYQYGTAsiqMGZ-432" value="" style="shape=partialRectangle;collapsible=0;dropTarget=0;pointerEvents=0;fillColor=none;top=0;left=0;bottom=0;right=0;points=[[0,0.5],[1,0.5]];portConstraint=eastwest;labelBackgroundColor=none;" vertex="1" parent="ArdAXpotYQYGTAsiqMGZ-426">
          <mxGeometry y="30" width="140" height="28" as="geometry" />
        </mxCell>
        <mxCell id="ArdAXpotYQYGTAsiqMGZ-433" value="" style="shape=partialRectangle;html=1;whiteSpace=wrap;connectable=0;overflow=hidden;fillColor=none;top=0;left=0;bottom=0;right=0;pointerEvents=1;labelBackgroundColor=none;" vertex="1" parent="ArdAXpotYQYGTAsiqMGZ-432">
          <mxGeometry width="35" height="28" as="geometry">
            <mxRectangle width="35" height="28" as="alternateBounds" />
          </mxGeometry>
        </mxCell>
        <mxCell id="ArdAXpotYQYGTAsiqMGZ-434" value="" style="shape=partialRectangle;html=1;whiteSpace=wrap;connectable=0;overflow=hidden;fillColor=none;top=0;left=0;bottom=0;right=0;pointerEvents=1;labelBackgroundColor=none;" vertex="1" parent="ArdAXpotYQYGTAsiqMGZ-432">
          <mxGeometry x="35" width="35" height="28" as="geometry">
            <mxRectangle width="35" height="28" as="alternateBounds" />
          </mxGeometry>
        </mxCell>
        <mxCell id="ArdAXpotYQYGTAsiqMGZ-435" value="" style="shape=partialRectangle;html=1;whiteSpace=wrap;connectable=0;overflow=hidden;fillColor=none;top=0;left=0;bottom=0;right=0;pointerEvents=1;labelBackgroundColor=none;" vertex="1" parent="ArdAXpotYQYGTAsiqMGZ-432">
          <mxGeometry x="70" width="35" height="28" as="geometry">
            <mxRectangle width="35" height="28" as="alternateBounds" />
          </mxGeometry>
        </mxCell>
        <mxCell id="ArdAXpotYQYGTAsiqMGZ-436" value="" style="shape=partialRectangle;html=1;whiteSpace=wrap;connectable=0;overflow=hidden;fillColor=none;top=0;left=0;bottom=0;right=0;pointerEvents=1;labelBackgroundColor=none;" vertex="1" parent="ArdAXpotYQYGTAsiqMGZ-432">
          <mxGeometry x="105" width="35" height="28" as="geometry">
            <mxRectangle width="35" height="28" as="alternateBounds" />
          </mxGeometry>
        </mxCell>
        <mxCell id="ArdAXpotYQYGTAsiqMGZ-437" value="" style="shape=partialRectangle;collapsible=0;dropTarget=0;pointerEvents=0;fillColor=none;top=0;left=0;bottom=0;right=0;points=[[0,0.5],[1,0.5]];portConstraint=eastwest;labelBackgroundColor=none;" vertex="1" parent="ArdAXpotYQYGTAsiqMGZ-426">
          <mxGeometry y="58" width="140" height="28" as="geometry" />
        </mxCell>
        <mxCell id="ArdAXpotYQYGTAsiqMGZ-438" value="" style="shape=partialRectangle;html=1;whiteSpace=wrap;connectable=0;overflow=hidden;fillColor=none;top=0;left=0;bottom=0;right=0;pointerEvents=1;labelBackgroundColor=none;" vertex="1" parent="ArdAXpotYQYGTAsiqMGZ-437">
          <mxGeometry width="35" height="28" as="geometry">
            <mxRectangle width="35" height="28" as="alternateBounds" />
          </mxGeometry>
        </mxCell>
        <mxCell id="ArdAXpotYQYGTAsiqMGZ-439" value="" style="shape=partialRectangle;html=1;whiteSpace=wrap;connectable=0;overflow=hidden;fillColor=none;top=0;left=0;bottom=0;right=0;pointerEvents=1;labelBackgroundColor=none;" vertex="1" parent="ArdAXpotYQYGTAsiqMGZ-437">
          <mxGeometry x="35" width="35" height="28" as="geometry">
            <mxRectangle width="35" height="28" as="alternateBounds" />
          </mxGeometry>
        </mxCell>
        <mxCell id="ArdAXpotYQYGTAsiqMGZ-440" value="" style="shape=partialRectangle;html=1;whiteSpace=wrap;connectable=0;overflow=hidden;fillColor=none;top=0;left=0;bottom=0;right=0;pointerEvents=1;labelBackgroundColor=none;" vertex="1" parent="ArdAXpotYQYGTAsiqMGZ-437">
          <mxGeometry x="70" width="35" height="28" as="geometry">
            <mxRectangle width="35" height="28" as="alternateBounds" />
          </mxGeometry>
        </mxCell>
        <mxCell id="ArdAXpotYQYGTAsiqMGZ-441" value="" style="shape=partialRectangle;html=1;whiteSpace=wrap;connectable=0;overflow=hidden;fillColor=none;top=0;left=0;bottom=0;right=0;pointerEvents=1;labelBackgroundColor=none;" vertex="1" parent="ArdAXpotYQYGTAsiqMGZ-437">
          <mxGeometry x="105" width="35" height="28" as="geometry">
            <mxRectangle width="35" height="28" as="alternateBounds" />
          </mxGeometry>
        </mxCell>
        <mxCell id="ArdAXpotYQYGTAsiqMGZ-442" value="" style="shape=partialRectangle;collapsible=0;dropTarget=0;pointerEvents=0;fillColor=none;top=0;left=0;bottom=0;right=0;points=[[0,0.5],[1,0.5]];portConstraint=eastwest;labelBackgroundColor=none;" vertex="1" parent="ArdAXpotYQYGTAsiqMGZ-426">
          <mxGeometry y="86" width="140" height="29" as="geometry" />
        </mxCell>
        <mxCell id="ArdAXpotYQYGTAsiqMGZ-443" value="" style="shape=partialRectangle;html=1;whiteSpace=wrap;connectable=0;overflow=hidden;fillColor=none;top=0;left=0;bottom=0;right=0;pointerEvents=1;labelBackgroundColor=none;" vertex="1" parent="ArdAXpotYQYGTAsiqMGZ-442">
          <mxGeometry width="35" height="29" as="geometry">
            <mxRectangle width="35" height="29" as="alternateBounds" />
          </mxGeometry>
        </mxCell>
        <mxCell id="ArdAXpotYQYGTAsiqMGZ-444" value="" style="shape=partialRectangle;html=1;whiteSpace=wrap;connectable=0;overflow=hidden;fillColor=none;top=0;left=0;bottom=0;right=0;pointerEvents=1;labelBackgroundColor=none;" vertex="1" parent="ArdAXpotYQYGTAsiqMGZ-442">
          <mxGeometry x="35" width="35" height="29" as="geometry">
            <mxRectangle width="35" height="29" as="alternateBounds" />
          </mxGeometry>
        </mxCell>
        <mxCell id="ArdAXpotYQYGTAsiqMGZ-445" value="" style="shape=partialRectangle;html=1;whiteSpace=wrap;connectable=0;overflow=hidden;fillColor=none;top=0;left=0;bottom=0;right=0;pointerEvents=1;labelBackgroundColor=none;" vertex="1" parent="ArdAXpotYQYGTAsiqMGZ-442">
          <mxGeometry x="70" width="35" height="29" as="geometry">
            <mxRectangle width="35" height="29" as="alternateBounds" />
          </mxGeometry>
        </mxCell>
        <mxCell id="ArdAXpotYQYGTAsiqMGZ-446" value="" style="shape=partialRectangle;html=1;whiteSpace=wrap;connectable=0;overflow=hidden;fillColor=none;top=0;left=0;bottom=0;right=0;pointerEvents=1;labelBackgroundColor=none;" vertex="1" parent="ArdAXpotYQYGTAsiqMGZ-442">
          <mxGeometry x="105" width="35" height="29" as="geometry">
            <mxRectangle width="35" height="29" as="alternateBounds" />
          </mxGeometry>
        </mxCell>
        <mxCell id="ArdAXpotYQYGTAsiqMGZ-447" value="" style="shape=partialRectangle;collapsible=0;dropTarget=0;pointerEvents=0;fillColor=none;top=0;left=0;bottom=0;right=0;points=[[0,0.5],[1,0.5]];portConstraint=eastwest;labelBackgroundColor=none;" vertex="1" parent="ArdAXpotYQYGTAsiqMGZ-426">
          <mxGeometry y="115" width="140" height="30" as="geometry" />
        </mxCell>
        <mxCell id="ArdAXpotYQYGTAsiqMGZ-448" value="" style="shape=partialRectangle;html=1;whiteSpace=wrap;connectable=0;overflow=hidden;fillColor=none;top=0;left=0;bottom=0;right=0;pointerEvents=1;labelBackgroundColor=none;" vertex="1" parent="ArdAXpotYQYGTAsiqMGZ-447">
          <mxGeometry width="35" height="30" as="geometry">
            <mxRectangle width="35" height="30" as="alternateBounds" />
          </mxGeometry>
        </mxCell>
        <mxCell id="ArdAXpotYQYGTAsiqMGZ-449" value="" style="shape=partialRectangle;html=1;whiteSpace=wrap;connectable=0;overflow=hidden;fillColor=none;top=0;left=0;bottom=0;right=0;pointerEvents=1;labelBackgroundColor=none;" vertex="1" parent="ArdAXpotYQYGTAsiqMGZ-447">
          <mxGeometry x="35" width="35" height="30" as="geometry">
            <mxRectangle width="35" height="30" as="alternateBounds" />
          </mxGeometry>
        </mxCell>
        <mxCell id="ArdAXpotYQYGTAsiqMGZ-450" value="" style="shape=partialRectangle;html=1;whiteSpace=wrap;connectable=0;overflow=hidden;fillColor=none;top=0;left=0;bottom=0;right=0;pointerEvents=1;labelBackgroundColor=none;" vertex="1" parent="ArdAXpotYQYGTAsiqMGZ-447">
          <mxGeometry x="70" width="35" height="30" as="geometry">
            <mxRectangle width="35" height="30" as="alternateBounds" />
          </mxGeometry>
        </mxCell>
        <mxCell id="ArdAXpotYQYGTAsiqMGZ-451" value="" style="shape=partialRectangle;html=1;whiteSpace=wrap;connectable=0;overflow=hidden;fillColor=none;top=0;left=0;bottom=0;right=0;pointerEvents=1;labelBackgroundColor=none;" vertex="1" parent="ArdAXpotYQYGTAsiqMGZ-447">
          <mxGeometry x="105" width="35" height="30" as="geometry">
            <mxRectangle width="35" height="30" as="alternateBounds" />
          </mxGeometry>
        </mxCell>
        <mxCell id="ArdAXpotYQYGTAsiqMGZ-452" value="" style="shape=partialRectangle;collapsible=0;dropTarget=0;pointerEvents=0;fillColor=none;top=0;left=0;bottom=0;right=0;points=[[0,0.5],[1,0.5]];portConstraint=eastwest;labelBackgroundColor=none;" vertex="1" parent="ArdAXpotYQYGTAsiqMGZ-426">
          <mxGeometry y="145" width="140" height="28" as="geometry" />
        </mxCell>
        <mxCell id="ArdAXpotYQYGTAsiqMGZ-453" value="" style="shape=partialRectangle;html=1;whiteSpace=wrap;connectable=0;overflow=hidden;fillColor=none;top=0;left=0;bottom=0;right=0;pointerEvents=1;labelBackgroundColor=none;" vertex="1" parent="ArdAXpotYQYGTAsiqMGZ-452">
          <mxGeometry width="35" height="28" as="geometry">
            <mxRectangle width="35" height="28" as="alternateBounds" />
          </mxGeometry>
        </mxCell>
        <mxCell id="ArdAXpotYQYGTAsiqMGZ-454" value="" style="shape=partialRectangle;html=1;whiteSpace=wrap;connectable=0;overflow=hidden;fillColor=none;top=0;left=0;bottom=0;right=0;pointerEvents=1;labelBackgroundColor=none;" vertex="1" parent="ArdAXpotYQYGTAsiqMGZ-452">
          <mxGeometry x="35" width="35" height="28" as="geometry">
            <mxRectangle width="35" height="28" as="alternateBounds" />
          </mxGeometry>
        </mxCell>
        <mxCell id="ArdAXpotYQYGTAsiqMGZ-455" value="" style="shape=partialRectangle;html=1;whiteSpace=wrap;connectable=0;overflow=hidden;fillColor=none;top=0;left=0;bottom=0;right=0;pointerEvents=1;labelBackgroundColor=none;" vertex="1" parent="ArdAXpotYQYGTAsiqMGZ-452">
          <mxGeometry x="70" width="35" height="28" as="geometry">
            <mxRectangle width="35" height="28" as="alternateBounds" />
          </mxGeometry>
        </mxCell>
        <mxCell id="ArdAXpotYQYGTAsiqMGZ-456" value="" style="shape=partialRectangle;html=1;whiteSpace=wrap;connectable=0;overflow=hidden;fillColor=none;top=0;left=0;bottom=0;right=0;pointerEvents=1;labelBackgroundColor=none;" vertex="1" parent="ArdAXpotYQYGTAsiqMGZ-452">
          <mxGeometry x="105" width="35" height="28" as="geometry">
            <mxRectangle width="35" height="28" as="alternateBounds" />
          </mxGeometry>
        </mxCell>
        <mxCell id="ArdAXpotYQYGTAsiqMGZ-457" value="" style="shape=partialRectangle;collapsible=0;dropTarget=0;pointerEvents=0;fillColor=none;top=0;left=0;bottom=0;right=0;points=[[0,0.5],[1,0.5]];portConstraint=eastwest;labelBackgroundColor=none;" vertex="1" parent="ArdAXpotYQYGTAsiqMGZ-426">
          <mxGeometry y="173" width="140" height="28" as="geometry" />
        </mxCell>
        <mxCell id="ArdAXpotYQYGTAsiqMGZ-458" value="" style="shape=partialRectangle;html=1;whiteSpace=wrap;connectable=0;overflow=hidden;fillColor=none;top=0;left=0;bottom=0;right=0;pointerEvents=1;labelBackgroundColor=none;" vertex="1" parent="ArdAXpotYQYGTAsiqMGZ-457">
          <mxGeometry width="35" height="28" as="geometry">
            <mxRectangle width="35" height="28" as="alternateBounds" />
          </mxGeometry>
        </mxCell>
        <mxCell id="ArdAXpotYQYGTAsiqMGZ-459" value="" style="shape=partialRectangle;html=1;whiteSpace=wrap;connectable=0;overflow=hidden;fillColor=none;top=0;left=0;bottom=0;right=0;pointerEvents=1;labelBackgroundColor=none;" vertex="1" parent="ArdAXpotYQYGTAsiqMGZ-457">
          <mxGeometry x="35" width="35" height="28" as="geometry">
            <mxRectangle width="35" height="28" as="alternateBounds" />
          </mxGeometry>
        </mxCell>
        <mxCell id="ArdAXpotYQYGTAsiqMGZ-460" value="" style="shape=partialRectangle;html=1;whiteSpace=wrap;connectable=0;overflow=hidden;fillColor=none;top=0;left=0;bottom=0;right=0;pointerEvents=1;labelBackgroundColor=none;" vertex="1" parent="ArdAXpotYQYGTAsiqMGZ-457">
          <mxGeometry x="70" width="35" height="28" as="geometry">
            <mxRectangle width="35" height="28" as="alternateBounds" />
          </mxGeometry>
        </mxCell>
        <mxCell id="ArdAXpotYQYGTAsiqMGZ-461" value="" style="shape=partialRectangle;html=1;whiteSpace=wrap;connectable=0;overflow=hidden;fillColor=none;top=0;left=0;bottom=0;right=0;pointerEvents=1;labelBackgroundColor=none;" vertex="1" parent="ArdAXpotYQYGTAsiqMGZ-457">
          <mxGeometry x="105" width="35" height="28" as="geometry">
            <mxRectangle width="35" height="28" as="alternateBounds" />
          </mxGeometry>
        </mxCell>
        <mxCell id="ArdAXpotYQYGTAsiqMGZ-462" value="" style="shape=partialRectangle;collapsible=0;dropTarget=0;pointerEvents=0;fillColor=none;top=0;left=0;bottom=0;right=0;points=[[0,0.5],[1,0.5]];portConstraint=eastwest;labelBackgroundColor=none;" vertex="1" parent="ArdAXpotYQYGTAsiqMGZ-426">
          <mxGeometry y="201" width="140" height="29" as="geometry" />
        </mxCell>
        <mxCell id="ArdAXpotYQYGTAsiqMGZ-463" value="" style="shape=partialRectangle;html=1;whiteSpace=wrap;connectable=0;overflow=hidden;fillColor=none;top=0;left=0;bottom=0;right=0;pointerEvents=1;labelBackgroundColor=none;" vertex="1" parent="ArdAXpotYQYGTAsiqMGZ-462">
          <mxGeometry width="35" height="29" as="geometry">
            <mxRectangle width="35" height="29" as="alternateBounds" />
          </mxGeometry>
        </mxCell>
        <mxCell id="ArdAXpotYQYGTAsiqMGZ-464" value="" style="shape=partialRectangle;html=1;whiteSpace=wrap;connectable=0;overflow=hidden;fillColor=none;top=0;left=0;bottom=0;right=0;pointerEvents=1;labelBackgroundColor=none;" vertex="1" parent="ArdAXpotYQYGTAsiqMGZ-462">
          <mxGeometry x="35" width="35" height="29" as="geometry">
            <mxRectangle width="35" height="29" as="alternateBounds" />
          </mxGeometry>
        </mxCell>
        <mxCell id="ArdAXpotYQYGTAsiqMGZ-465" value="" style="shape=partialRectangle;html=1;whiteSpace=wrap;connectable=0;overflow=hidden;fillColor=none;top=0;left=0;bottom=0;right=0;pointerEvents=1;labelBackgroundColor=none;" vertex="1" parent="ArdAXpotYQYGTAsiqMGZ-462">
          <mxGeometry x="70" width="35" height="29" as="geometry">
            <mxRectangle width="35" height="29" as="alternateBounds" />
          </mxGeometry>
        </mxCell>
        <mxCell id="ArdAXpotYQYGTAsiqMGZ-466" value="" style="shape=partialRectangle;html=1;whiteSpace=wrap;connectable=0;overflow=hidden;fillColor=none;top=0;left=0;bottom=0;right=0;pointerEvents=1;labelBackgroundColor=none;" vertex="1" parent="ArdAXpotYQYGTAsiqMGZ-462">
          <mxGeometry x="105" width="35" height="29" as="geometry">
            <mxRectangle width="35" height="29" as="alternateBounds" />
          </mxGeometry>
        </mxCell>
      </root>
    </mxGraphModel>
  </diagram>
</mxfile>
